<svg version="1.1" xmlns="http://www.w3.org/2000/svg" style="display: block;" viewBox="0 0 2048 2048" width="1024" height="1024" preserveAspectRatio="none">
<defs>
	<linearGradient id="Gradient1" gradientUnits="userSpaceOnUse" x1="978.713" y1="617.147" x2="1024.94" y2="652.517">
		<stop class="stop0" offset="0" stop-opacity="1" stop-color="rgb(233,116,18)"/>
		<stop class="stop1" offset="1" stop-opacity="1" stop-color="rgb(241,154,29)"/>
	</linearGradient>
	<linearGradient id="Gradient2" gradientUnits="userSpaceOnUse" x1="800.921" y1="769.007" x2="743.079" y2="793.993">
		<stop class="stop0" offset="0" stop-opacity="1" stop-color="rgb(187,255,249)"/>
		<stop class="stop1" offset="1" stop-opacity="1" stop-color="rgb(107,243,251)"/>
	</linearGradient>
	<linearGradient id="Gradient3" gradientUnits="userSpaceOnUse" x1="858.659" y1="770.641" x2="867.145" y2="709.579">
		<stop class="stop0" offset="0" stop-opacity="1" stop-color="rgb(75,172,246)"/>
		<stop class="stop1" offset="1" stop-opacity="1" stop-color="rgb(58,216,252)"/>
	</linearGradient>
	<linearGradient id="Gradient4" gradientUnits="userSpaceOnUse" x1="831.329" y1="718.463" x2="861.471" y2="855.747">
		<stop class="stop0" offset="0" stop-opacity="1" stop-color="rgb(57,55,210)"/>
		<stop class="stop1" offset="1" stop-opacity="1" stop-color="rgb(115,60,229)"/>
	</linearGradient>
	<linearGradient id="Gradient5" gradientUnits="userSpaceOnUse" x1="942.201" y1="547.134" x2="751.775" y2="633.96">
		<stop class="stop0" offset="0" stop-opacity="1" stop-color="rgb(178,148,254)"/>
		<stop class="stop1" offset="1" stop-opacity="1" stop-color="rgb(130,176,252)"/>
	</linearGradient>
	<linearGradient id="Gradient6" gradientUnits="userSpaceOnUse" x1="1145.79" y1="1233.77" x2="1165.59" y2="1266.35">
		<stop class="stop0" offset="0" stop-opacity="1" stop-color="rgb(26,6,169)"/>
		<stop class="stop1" offset="1" stop-opacity="1" stop-color="rgb(85,74,236)"/>
	</linearGradient>
	<linearGradient id="Gradient7" gradientUnits="userSpaceOnUse" x1="1256.22" y1="1328.34" x2="1298.38" y2="1343.37">
		<stop class="stop0" offset="0" stop-opacity="1" stop-color="rgb(63,21,174)"/>
		<stop class="stop1" offset="1" stop-opacity="1" stop-color="rgb(128,53,216)"/>
	</linearGradient>
	<linearGradient id="Gradient8" gradientUnits="userSpaceOnUse" x1="1020.47" y1="1150.35" x2="1013.34" y2="1112.31">
		<stop class="stop0" offset="0" stop-opacity="1" stop-color="rgb(33,1,160)"/>
		<stop class="stop1" offset="1" stop-opacity="1" stop-color="rgb(67,59,211)"/>
	</linearGradient>
	<linearGradient id="Gradient9" gradientUnits="userSpaceOnUse" x1="1078.13" y1="1143.67" x2="1050.61" y2="1041.07">
		<stop class="stop0" offset="0" stop-opacity="1" stop-color="rgb(41,9,170)"/>
		<stop class="stop1" offset="1" stop-opacity="1" stop-color="rgb(56,64,217)"/>
	</linearGradient>
	<linearGradient id="Gradient10" gradientUnits="userSpaceOnUse" x1="1089.92" y1="1060" x2="818.288" y2="844.4">
		<stop class="stop0" offset="0" stop-opacity="1" stop-color="rgb(74,153,253)"/>
		<stop class="stop1" offset="1" stop-opacity="1" stop-color="rgb(76,255,253)"/>
	</linearGradient>
	<linearGradient id="Gradient11" gradientUnits="userSpaceOnUse" x1="1199.84" y1="1215.08" x2="967.791" y2="943.032">
		<stop class="stop0" offset="0" stop-opacity="1" stop-color="rgb(91,73,231)"/>
		<stop class="stop1" offset="1" stop-opacity="1" stop-color="rgb(74,183,255)"/>
	</linearGradient>
	<linearGradient id="Gradient12" gradientUnits="userSpaceOnUse" x1="835.149" y1="1335.98" x2="795.544" y2="1319.04">
		<stop class="stop0" offset="0" stop-opacity="1" stop-color="rgb(19,23,163)"/>
		<stop class="stop1" offset="1" stop-opacity="1" stop-color="rgb(47,60,200)"/>
	</linearGradient>
	<linearGradient id="Gradient13" gradientUnits="userSpaceOnUse" x1="792.123" y1="1009.15" x2="731.288" y2="991.996">
		<stop class="stop0" offset="0" stop-opacity="1" stop-color="rgb(90,161,249)"/>
		<stop class="stop1" offset="1" stop-opacity="1" stop-color="rgb(54,229,252)"/>
	</linearGradient>
</defs>
<path transform="translate(0,0)" fill="rgb(1,1,66)" d="M 0 0 L 2048 0 L 2048 2048 L 0 2048 L 0 0 z"/>
<path transform="translate(0,0)" fill="rgb(192,85,245)" d="M 495.886 698.631 C 494.64 656.098 511.366 600.739 533.264 564.788 C 567.257 508.777 622.368 468.81 686.168 453.9 C 726.064 444.23 763.039 444.476 803.8 444.486 L 883.365 444.576 L 1097.59 444.406 L 1231.96 444.418 C 1294.72 444.469 1369.54 442.736 1425.08 476.427 C 1444.9 485.783 1459.89 498.021 1476.04 512.594 C 1522.96 554.916 1548.75 616.377 1552.32 679.018 C 1554.74 721.45 1553.71 764.954 1553.66 807.725 L 1553.28 1026.78 L 1553.04 1223.7 C 1552.95 1295.74 1558.57 1369.24 1526.56 1436.04 C 1498.71 1494.13 1448.91 1538.75 1388.13 1560.07 C 1380.23 1562.83 1366.23 1567.18 1358.11 1568.79 C 1322.85 1580.55 1232.89 1578 1192.92 1578.01 L 1040.43 1577.99 L 871.831 1577.87 C 793.44 1577.82 709.925 1584.04 637.574 1549.61 C 628.841 1545.46 614.583 1538.46 608.083 1531.44 C 603.452 1530.29 597.164 1524.66 593.439 1521.78 C 543.091 1482.96 511.792 1425.9 500.716 1363.81 C 496.039 1337.59 495.829 1310.99 495.46 1284.21 C 495.131 1256.16 494.991 1228.1 495.039 1200.04 L 494.978 960.359 L 494.911 786.882 C 494.9 766.019 493.587 717.537 495.886 698.631 z"/>
<path transform="translate(0,0)" fill="rgb(78,160,250)" d="M 495.886 698.631 L 495.997 699.797 C 497.488 717.313 494.211 740.868 496.374 756.03 C 499.033 743.618 496.957 704.761 497.721 689.738 C 502.619 593.409 555.606 509.097 644.514 469.409 C 650.345 466.819 665.548 460.506 672.483 460.831 C 679.355 463.357 684.041 470.62 689.057 474.905 C 696.658 481.398 698.204 489.043 704.117 495.748 C 717.692 511.058 732.51 526.389 745.614 542.001 C 749.333 550.147 755.916 560.268 759.268 568.209 C 765.797 583.676 777.974 593.633 786.141 606.203 C 796.922 622.798 799.639 630.287 815.277 644.134 C 831.231 658.259 844.392 679.568 856.52 696.92 C 860.018 702.162 868.299 703.973 872.103 708.994 L 872.361 710.716 L 870.665 709.701 C 851.532 698.412 783.064 681.941 771.276 707.115 C 754.497 742.949 752.063 786.9 759.681 825.374 C 760.047 827.334 760.844 827.898 761.997 829.113 C 763.904 837.856 766.39 851.158 769.428 859.19 C 770.547 863.874 772.874 870.296 775.52 874.326 C 770.925 877.565 766.051 888.025 764.4 893.313 C 768.946 888.897 771.78 881.673 775.138 880.347 C 777.628 882.852 778.01 886.607 778.831 890.181 L 781.799 889.768 C 777.8 897.485 773.065 907.21 769.647 915.265 C 763.952 930.819 752.843 963.211 751.808 979.458 C 750.014 982.063 749.691 989.997 749.323 993.499 C 745.581 1029.1 746.712 1066.88 759.366 1100.7 C 761.028 1105.14 763.206 1109.71 764.512 1114.11 C 768.348 1123.25 772.693 1130.62 777.545 1139.2 C 785.344 1151.13 793.435 1163.31 802.443 1174.47 C 809.46 1183.15 820.336 1190.86 825.929 1200.71 C 827.894 1204.17 828.648 1215.25 829.799 1217.75 L 831.778 1217.64 C 838.118 1225.94 835.171 1254.85 837.919 1264.8 C 839.099 1278.87 841.006 1292.97 842.318 1307.08 C 839.942 1309.86 841.358 1309.23 838.388 1310.06 L 838.386 1312.85 C 839.669 1318.8 840.94 1325.2 842.407 1331.06 C 835.889 1335.97 840.661 1330.33 834.632 1334.6 C 837.171 1339.91 855.952 1341.98 861.532 1349.06 C 843.796 1347.44 827.49 1344.75 809.792 1347.94 L 811.437 1351.9 C 817.621 1354.33 838.995 1357.27 846.205 1358.35 C 899.062 1366.66 952.453 1371.14 1005.96 1371.75 C 1012.37 1371.82 1021.85 1373.18 1027.25 1370.48 C 1038.62 1373.64 1065.7 1375.11 1077.97 1373.52 C 1084.27 1372.71 1107.84 1374.04 1110.6 1372.88 C 1118.63 1376.92 1148.48 1372.19 1161.16 1372.49 C 1155.76 1374.23 1151.34 1373.26 1146.28 1374.27 C 1126.4 1378.25 1087.79 1375.97 1075.96 1395.1 C 1069.15 1406.11 1069.39 1423.27 1070.26 1435.44 C 1066.96 1446.92 1077.51 1456.62 1078.39 1464.47 C 1079.02 1477.88 1079.66 1491.7 1079.61 1505.12 C 1079.58 1514.77 1076.58 1522.03 1083.18 1530.94 C 1089.6 1539.63 1080.74 1549.28 1081.91 1555.45 C 1087.31 1563.57 1100.74 1570.51 1100.9 1573.6 C 1099.23 1575.06 1099.87 1574.74 1097.88 1575.57 C 1100.37 1577.07 1301.79 1575.43 1318.84 1573.78 C 1324.72 1573.22 1349.45 1568.79 1358.11 1568.79 C 1322.85 1580.55 1232.89 1578 1192.92 1578.01 L 1040.43 1577.99 L 871.831 1577.87 C 793.44 1577.82 709.925 1584.04 637.574 1549.61 C 628.841 1545.46 614.583 1538.46 608.083 1531.44 C 603.452 1530.29 597.164 1524.66 593.439 1521.78 C 543.091 1482.96 511.792 1425.9 500.716 1363.81 C 496.039 1337.59 495.829 1310.99 495.46 1284.21 C 495.131 1256.16 494.991 1228.1 495.039 1200.04 L 494.978 960.359 L 494.911 786.882 C 494.9 766.019 493.587 717.537 495.886 698.631 z"/>
<path transform="translate(0,0)" fill="rgb(95,87,242)" d="M 775.003 1323 C 781.975 1322.54 791.419 1322.03 798.165 1320.94 C 795.008 1325.58 790.312 1330.65 790.241 1335.35 C 794.384 1342.71 808.26 1343.71 809.792 1347.94 L 811.437 1351.9 C 817.621 1354.33 838.995 1357.27 846.205 1358.35 C 899.062 1366.66 952.453 1371.14 1005.96 1371.75 C 1012.37 1371.82 1021.85 1373.18 1027.25 1370.48 C 1038.62 1373.64 1065.7 1375.11 1077.97 1373.52 C 1084.27 1372.71 1107.84 1374.04 1110.6 1372.88 C 1118.63 1376.92 1148.48 1372.19 1161.16 1372.49 C 1155.76 1374.23 1151.34 1373.26 1146.28 1374.27 C 1126.4 1378.25 1087.79 1375.97 1075.96 1395.1 C 1069.15 1406.11 1069.39 1423.27 1070.26 1435.44 C 1066.96 1446.92 1077.51 1456.62 1078.39 1464.47 C 1079.02 1477.88 1079.66 1491.7 1079.61 1505.12 C 1079.58 1514.77 1076.58 1522.03 1083.18 1530.94 C 1089.6 1539.63 1080.74 1549.28 1081.91 1555.45 C 1087.31 1563.57 1100.74 1570.51 1100.9 1573.6 C 1099.23 1575.06 1099.87 1574.74 1097.88 1575.57 C 1100.37 1577.07 1301.79 1575.43 1318.84 1573.78 C 1324.72 1573.22 1349.45 1568.79 1358.11 1568.79 C 1322.85 1580.55 1232.89 1578 1192.92 1578.01 L 1040.43 1577.99 L 871.831 1577.87 C 793.44 1577.82 709.925 1584.04 637.574 1549.61 C 628.841 1545.46 614.583 1538.46 608.083 1531.44 C 613.362 1532.06 627.171 1542.66 633.068 1545.43 C 672.179 1563.81 715.393 1575.05 758.782 1574.45 C 760.754 1574.42 764.834 1575.76 767.686 1575.94 C 772.007 1572.04 769.241 1569.99 773.479 1565.85 C 775.667 1563.71 781.21 1559.59 783.864 1558.09 C 797.67 1550.29 800.039 1543.84 806.397 1529.58 C 813.082 1514.58 824.393 1509.85 832.008 1496.95 C 833.923 1493.7 825.83 1480.09 829.78 1474.83 C 829.953 1474.43 830.126 1474.04 830.299 1473.64 C 833.398 1464.29 841.832 1458.08 847.003 1450.14 C 848.319 1448.12 848.388 1441.72 849.611 1439.05 C 854.268 1428.9 858.652 1417.97 863.272 1407.8 C 863.525 1407.24 862.1 1393.41 862.065 1392.51 C 862.033 1391.7 864.846 1391.64 866.105 1387.57 C 863.559 1383.09 860.549 1384.34 857.722 1380.3 C 854.823 1380.76 851.822 1376.18 846.21 1374.69 C 819.297 1367.55 791.313 1360.1 765.453 1349.75 C 748.943 1343.14 746.763 1328.48 764.837 1322.83 C 768.84 1324.99 770.912 1325.41 775.003 1323 z"/>
<path transform="translate(0,0)" fill="url(#Gradient13)" d="M 764.4 893.313 C 768.946 888.897 771.78 881.673 775.138 880.347 C 777.628 882.852 778.01 886.607 778.831 890.181 L 781.799 889.768 C 777.8 897.485 773.065 907.21 769.647 915.265 C 763.952 930.819 752.843 963.211 751.808 979.458 C 750.014 982.063 749.691 989.997 749.323 993.499 C 745.581 1029.1 746.712 1066.88 759.366 1100.7 C 761.028 1105.14 763.206 1109.71 764.512 1114.11 C 761.653 1118.72 760.73 1121.59 755.622 1123.02 C 756.403 1125.72 757.485 1127.5 756.77 1129.66 C 752.971 1127.64 743.122 1101.96 741.053 1096.3 C 736.423 1083.63 734.699 1069.59 733.166 1056.26 C 726.256 996.185 738.693 946.859 764.4 893.313 z"/>
<path transform="translate(0,0)" fill="rgb(78,226,251)" d="M 778.831 890.181 L 781.799 889.768 C 777.8 897.485 773.065 907.21 769.647 915.265 C 768.724 910.943 767.673 905.534 768.567 901.272 C 772.792 894.363 776.321 899.433 778.831 890.181 z"/>
<path transform="translate(0,0)" fill="rgb(95,87,242)" d="M 830.019 1225.28 C 829.035 1224.88 826.908 1224.06 825.956 1223.15 C 799.551 1198.09 770.109 1165.56 760.197 1129.78 C 758.835 1124.86 761.383 1121.37 763.818 1118.12 C 766.823 1124.4 771.459 1136.18 777.545 1139.2 C 785.344 1151.13 793.435 1163.31 802.443 1174.47 C 809.46 1183.15 820.336 1190.86 825.929 1200.71 C 827.894 1204.17 828.648 1215.25 829.799 1217.75 L 830.019 1225.28 z"/>
<path transform="translate(0,0)" fill="url(#Gradient12)" d="M 775.003 1323 C 779.535 1320.26 801.574 1319.17 808.484 1318.16 C 817.998 1316.76 829.096 1313.92 838.386 1312.85 C 839.669 1318.8 840.94 1325.2 842.407 1331.06 C 835.889 1335.97 840.661 1330.33 834.632 1334.6 C 837.171 1339.91 855.952 1341.98 861.532 1349.06 C 843.796 1347.44 827.49 1344.75 809.792 1347.94 C 808.26 1343.71 794.384 1342.71 790.241 1335.35 C 790.312 1330.65 795.008 1325.58 798.165 1320.94 C 791.419 1322.03 781.975 1322.54 775.003 1323 z"/>
<path transform="translate(0,0)" fill="rgb(86,105,239)" d="M 764.512 1114.11 C 768.348 1123.25 772.693 1130.62 777.545 1139.2 C 771.459 1136.18 766.823 1124.4 763.818 1118.12 C 761.383 1121.37 758.835 1124.86 760.197 1129.78 C 770.109 1165.56 799.551 1198.09 825.956 1223.15 C 826.908 1224.06 829.035 1224.88 830.019 1225.28 L 829.799 1217.75 L 831.778 1217.64 C 838.118 1225.94 835.171 1254.85 837.919 1264.8 C 839.099 1278.87 841.006 1292.97 842.318 1307.08 C 839.942 1309.86 841.358 1309.23 838.388 1310.06 L 838.386 1312.85 C 829.096 1313.92 817.998 1316.76 808.484 1318.16 C 801.574 1319.17 779.535 1320.26 775.003 1323 C 770.912 1325.41 768.84 1324.99 764.837 1322.83 C 768.764 1317.22 821.674 1317.76 835.057 1308.69 C 837.151 1301.13 832.813 1281.53 831.73 1273.4 C 830.829 1266.63 829.522 1233.41 827.8 1230.28 C 820.91 1217.74 798.089 1199.59 788.357 1185.8 C 772.492 1163.33 767.083 1154.18 756.77 1129.66 C 757.485 1127.5 756.403 1125.72 755.622 1123.02 C 760.73 1121.59 761.653 1118.72 764.512 1114.11 z"/>
<path transform="translate(0,0)" fill="rgb(181,249,245)" d="M 829.799 1217.75 L 831.778 1217.64 C 838.118 1225.94 835.171 1254.85 837.919 1264.8 C 839.099 1278.87 841.006 1292.97 842.318 1307.08 C 839.942 1309.86 841.358 1309.23 838.388 1310.06 C 834.059 1284.53 831.261 1250.96 830.019 1225.28 L 829.799 1217.75 z"/>
<path transform="translate(0,0)" fill="url(#Gradient11)" d="M 996.492 748.984 C 1011.63 744.928 1018.84 746.093 1034.29 746.134 C 1054.25 746.754 1076.17 749.018 1095.91 752.328 C 1106.65 754.131 1117.14 758.022 1128.1 759.64 C 1122.37 765.371 1115.24 772.092 1110.43 778.424 C 1114.82 779.05 1120.16 779.968 1124.51 780.174 C 1130.34 775 1135.45 770.554 1140.41 764.5 L 1142.19 765.142 C 1145.68 760.393 1146.7 761.356 1152.41 761.808 C 1153.64 761.597 1155.81 760.732 1157.08 760.281 C 1149.1 768.103 1142.27 774.076 1135.25 782.866 C 1142.34 785.393 1148.99 785.688 1156.87 788.965 C 1192.16 806.62 1209.12 818.585 1236.94 847.47 C 1243.25 854.026 1249.08 865.912 1255.56 870.729 L 1256.42 867.646 C 1259.13 863.254 1264 844.49 1267.21 836.965 C 1267.78 845.089 1259.73 860.682 1261.69 866.328 C 1266.56 861.836 1273.57 842.651 1277.56 838.98 C 1276.57 842.408 1275.3 847.398 1273.98 850.571 C 1276.36 865.019 1268.92 874.834 1268.21 885.938 C 1272.01 879.593 1276.84 866.461 1280.94 862.414 C 1291.92 879.701 1300.39 891.664 1309.37 910.286 C 1332.66 958.603 1340.86 1024.38 1328.29 1076.67 C 1316.47 1125.88 1287.12 1181.59 1249.13 1215.21 C 1243.91 1219.83 1238.07 1225.95 1232.38 1229.83 C 1228.91 1240.67 1219.27 1299.99 1220.76 1308.26 C 1225.84 1315.56 1235.21 1311.62 1243.16 1316.08 C 1251.33 1317.3 1262.54 1319.2 1270.54 1319.54 C 1283.3 1320.09 1284.39 1314.24 1297.54 1319.73 L 1298.03 1320.9 C 1296.34 1321.89 1295.8 1322.17 1294.39 1323.55 C 1300.79 1328.48 1305.91 1330.65 1299.88 1340.15 C 1299.03 1341.48 1295.74 1343.49 1294.3 1344.43 L 1293.22 1344.46 C 1280.33 1354.41 1265.44 1352.81 1248.25 1358.76 L 1249.81 1359.12 C 1243.39 1361.46 1240.14 1362.09 1233.24 1362.66 C 1210.03 1364.58 1184.56 1372.69 1161.16 1372.49 C 1148.48 1372.19 1118.63 1376.92 1110.6 1372.88 C 1107.84 1374.04 1084.27 1372.71 1077.97 1373.52 C 1065.7 1375.11 1038.62 1373.64 1027.25 1370.48 C 1021.85 1373.18 1012.37 1371.82 1005.96 1371.75 C 952.453 1371.14 899.062 1366.66 846.205 1358.35 C 838.995 1357.27 817.621 1354.33 811.437 1351.9 L 809.792 1347.94 C 827.49 1344.75 843.796 1347.44 861.532 1349.06 C 855.952 1341.98 837.171 1339.91 834.632 1334.6 C 840.661 1330.33 835.889 1335.97 842.407 1331.06 C 840.94 1325.2 839.669 1318.8 838.386 1312.85 L 838.388 1310.06 C 841.358 1309.23 839.942 1309.86 842.318 1307.08 C 841.006 1292.97 839.099 1278.87 837.919 1264.8 C 835.171 1254.85 838.118 1225.94 831.778 1217.64 L 829.799 1217.75 C 828.648 1215.25 827.894 1204.17 825.929 1200.71 C 820.336 1190.86 809.46 1183.15 802.443 1174.47 C 793.435 1163.31 785.344 1151.13 777.545 1139.2 C 772.693 1130.62 768.348 1123.25 764.512 1114.11 C 763.206 1109.71 761.028 1105.14 759.366 1100.7 C 746.712 1066.88 745.581 1029.1 749.323 993.499 C 749.691 989.997 750.014 982.063 751.808 979.458 C 752.843 963.211 763.952 930.819 769.647 915.265 C 773.065 907.21 777.8 897.485 781.799 889.768 L 783.583 889.46 L 787.899 893.371 L 788.326 891.528 C 784.744 882.69 788.277 884.746 791.778 876.222 C 817.377 842.593 857.257 805.792 897.757 792.366 L 908.272 787.58 C 913.846 785.981 919.45 784.489 925.081 783.105 C 930.038 782.735 945.693 780.627 948.823 777.333 L 948.606 774.854 C 944.068 768.63 942.159 766.402 936.704 760.963 C 960.863 754.27 971.549 752.6 996.492 748.984 z"/>
<path transform="translate(0,0)" fill="url(#Gradient10)" d="M 996.492 748.984 C 1011.63 744.928 1018.84 746.093 1034.29 746.134 C 1054.25 746.754 1076.17 749.018 1095.91 752.328 C 1106.65 754.131 1117.14 758.022 1128.1 759.64 C 1122.37 765.371 1115.24 772.092 1110.43 778.424 C 1114.82 779.05 1120.16 779.968 1124.51 780.174 C 1130.34 775 1135.45 770.554 1140.41 764.5 L 1142.19 765.142 C 1145.68 760.393 1146.7 761.356 1152.41 761.808 C 1153.64 761.597 1155.81 760.732 1157.08 760.281 C 1149.1 768.103 1142.27 774.076 1135.25 782.866 C 1132.85 784.715 1132.08 784.875 1131.16 787.721 C 1132.75 789.279 1143.13 793.648 1150.24 799.596 C 1146.25 799.237 1140.75 797.566 1136.75 796.536 C 1142.39 802.282 1150.75 809.185 1155.32 815.112 C 1171.87 836.617 1172.37 869.419 1171.54 895.404 C 1170.61 924.344 1169.55 994.491 1127.53 992.817 C 1118.77 992.468 1105.8 989.373 1097.44 986.543 C 1099.23 988.462 1099.58 988.627 1100.75 990.932 C 1088.39 986.804 1084.86 983.408 1070.84 986.349 C 1065.84 983.997 1060.62 981.189 1055.68 978.648 C 1039.61 973.857 1025.55 970.313 1008.47 972.234 C 976.141 975.869 938.916 994.669 922.388 1023.62 C 911.391 1042.89 907.545 1070.71 920.172 1089.96 C 921.014 1091.27 924.535 1097.06 924.978 1098.23 C 925.494 1104.3 925.698 1109.81 926.193 1116.06 C 927.547 1130.34 934.601 1150.19 923.569 1162.51 C 910.494 1177.12 890.926 1187.5 871.795 1191.72 C 858.831 1194.58 851.103 1193.98 844.29 1206 L 842.606 1206.83 C 840.694 1204.93 839.016 1202.77 836.716 1201.79 L 836.61 1202.99 C 837.9 1204.12 849.289 1213.86 849.548 1214.21 L 847.834 1215.21 C 842.807 1211.71 833.638 1202.64 830.333 1201.35 L 829.096 1202.26 C 828.655 1206.73 828.743 1206.87 830.82 1211 L 831.883 1211.56 L 833.345 1209.45 C 837.628 1212.82 838.272 1255.68 839.102 1263.65 L 837.919 1264.8 C 835.171 1254.85 838.118 1225.94 831.778 1217.64 L 829.799 1217.75 C 828.648 1215.25 827.894 1204.17 825.929 1200.71 C 820.336 1190.86 809.46 1183.15 802.443 1174.47 C 793.435 1163.31 785.344 1151.13 777.545 1139.2 C 772.693 1130.62 768.348 1123.25 764.512 1114.11 C 763.206 1109.71 761.028 1105.14 759.366 1100.7 C 746.712 1066.88 745.581 1029.1 749.323 993.499 C 749.691 989.997 750.014 982.063 751.808 979.458 C 752.843 963.211 763.952 930.819 769.647 915.265 C 773.065 907.21 777.8 897.485 781.799 889.768 L 783.583 889.46 L 787.899 893.371 L 788.326 891.528 C 784.744 882.69 788.277 884.746 791.778 876.222 C 817.377 842.593 857.257 805.792 897.757 792.366 L 908.272 787.58 C 913.846 785.981 919.45 784.489 925.081 783.105 C 930.038 782.735 945.693 780.627 948.823 777.333 L 948.606 774.854 C 944.068 768.63 942.159 766.402 936.704 760.963 C 960.863 754.27 971.549 752.6 996.492 748.984 z"/>
<path transform="translate(0,0)" fill="rgb(78,160,250)" d="M 996.492 748.984 C 1011.63 744.928 1018.84 746.093 1034.29 746.134 C 1054.25 746.754 1076.17 749.018 1095.91 752.328 C 1106.65 754.131 1117.14 758.022 1128.1 759.64 C 1122.37 765.371 1115.24 772.092 1110.43 778.424 C 1114.82 779.05 1120.16 779.968 1124.51 780.174 C 1130.34 775 1135.45 770.554 1140.41 764.5 L 1142.19 765.142 C 1133.01 778.223 1126.27 785.866 1110.32 779.234 L 1109.88 777.901 C 1112.19 770.61 1120.65 768.22 1119.01 760.909 C 1114.15 756.362 1080.48 749.915 1074.28 752.373 C 1069.41 754.304 1057.73 760.526 1052.09 763.121 C 1055.65 765.98 1070.7 765.254 1077.07 769.42 L 1076.97 770.578 C 1068.9 771.897 1038.62 767.878 1028.81 768.621 C 1023.9 768.994 994.519 761.252 991.099 758.385 L 991.404 756.701 C 995.09 754.239 1000.9 753.016 1005.34 751.763 L 1005.03 750.785 L 996.492 748.984 z"/>
<path transform="translate(0,0)" fill="rgb(181,249,245)" d="M 781.799 889.768 L 783.583 889.46 L 787.899 893.371 L 790.804 893.786 C 791.489 895.68 791.651 897.94 790.404 899.552 C 783.385 908.628 762.077 965.697 757.012 967.41 L 755.636 966.546 C 754.306 970.787 753.143 975.369 751.808 979.458 C 752.843 963.211 763.952 930.819 769.647 915.265 C 773.065 907.21 777.8 897.485 781.799 889.768 z"/>
<path transform="translate(0,0)" fill="rgb(78,160,250)" d="M 1055.68 978.648 C 1064.92 975.352 1089.99 979.966 1097.44 986.543 C 1099.23 988.462 1099.58 988.627 1100.75 990.932 C 1088.39 986.804 1084.86 983.408 1070.84 986.349 C 1065.84 983.997 1060.62 981.189 1055.68 978.648 z"/>
<path transform="translate(0,0)" fill="rgb(71,207,253)" d="M 948.606 774.854 C 950.543 777.008 950.785 776.866 951.188 779.653 C 947.287 784.917 922.541 789.889 916.488 789.663 L 920.029 787.336 C 912.581 787.118 907.146 792.183 897.757 792.366 L 908.272 787.58 C 913.846 785.981 919.45 784.489 925.081 783.105 C 930.038 782.735 945.693 780.627 948.823 777.333 L 948.606 774.854 z"/>
<path transform="translate(0,0)" fill="rgb(78,160,250)" d="M 1152.41 761.808 C 1153.64 761.597 1155.81 760.732 1157.08 760.281 C 1149.1 768.103 1142.27 774.076 1135.25 782.866 C 1132.85 784.715 1132.08 784.875 1131.16 787.721 C 1132.75 789.279 1143.13 793.648 1150.24 799.596 C 1146.25 799.237 1140.75 797.566 1136.75 796.536 C 1115.38 788.97 1145.02 768.7 1152.41 761.808 z"/>
<path transform="translate(0,0)" fill="rgb(11,3,142)" d="M 1118.57 920.977 C 1141.4 922.373 1148.02 953.018 1124.57 960.929 C 1100.26 961.634 1095.49 932.575 1118.57 920.977 z"/>
<path transform="translate(0,0)" fill="rgb(11,3,142)" d="M 926.336 921.99 C 949.528 921.332 952.751 954.008 929.595 961.888 C 904.548 960.212 904.337 931.85 926.336 921.99 z"/>
<path transform="translate(0,0)" fill="rgb(71,207,253)" d="M 924.978 1098.23 C 924.535 1097.06 921.014 1091.27 920.172 1089.96 C 907.545 1070.71 911.391 1042.89 922.388 1023.62 C 938.916 994.669 976.141 975.869 1008.47 972.234 C 1025.55 970.313 1039.61 973.857 1055.68 978.648 C 1060.62 981.189 1065.84 983.997 1070.84 986.349 L 1077.32 990.261 C 1086.91 997.058 1093.72 1002.91 1101.34 1012.01 C 1106.47 1012.91 1107.54 1015.3 1112.03 1019.33 C 1119.48 1020.33 1126.68 1030.11 1129.03 1036.69 C 1128.6 1044.81 1130.4 1055.62 1131.12 1064 C 1132.88 1084.36 1127.49 1099.09 1115.33 1115.1 C 1085.23 1154.71 1029.46 1162.74 984.695 1144.87 C 976.82 1142.61 957.12 1133.12 950.268 1127.78 C 948.611 1126.5 947.58 1126.83 945.046 1126.5 C 940.347 1122.45 936.514 1119.08 939.059 1112.45 C 939.186 1112.67 926.446 1099.81 924.978 1098.23 z"/>
<path transform="translate(0,0)" fill="rgb(230,249,248)" d="M 924.978 1098.23 C 924.535 1097.06 921.014 1091.27 920.172 1089.96 C 907.545 1070.71 911.391 1042.89 922.388 1023.62 C 938.916 994.669 976.141 975.869 1008.47 972.234 C 1025.55 970.313 1039.61 973.857 1055.68 978.648 C 1060.62 981.189 1065.84 983.997 1070.84 986.349 L 1077.32 990.261 C 1086.91 997.058 1093.72 1002.91 1101.34 1012.01 L 1105.86 1017.97 L 1101.74 1020.83 C 1048.52 950.37 938.653 973.021 924.477 1061.32 C 921.54 1079.61 929.418 1093.63 939.258 1107.85 C 940.382 1109.47 942.349 1112.14 942.556 1114.02 L 939.059 1112.45 C 939.186 1112.67 926.446 1099.81 924.978 1098.23 z"/>
<path transform="translate(0,0)" fill="url(#Gradient9)" d="M 1112.03 1019.33 C 1119.48 1020.33 1126.68 1030.11 1129.03 1036.69 C 1128.6 1044.81 1130.4 1055.62 1131.12 1064 C 1132.88 1084.36 1127.49 1099.09 1115.33 1115.1 C 1085.23 1154.71 1029.46 1162.74 984.695 1144.87 C 992.02 1144.11 1007.62 1145.57 1014.82 1146.54 C 1040.11 1149.94 1061.33 1144.19 1081.56 1128.35 L 1081.57 1126.9 L 1078.51 1126.11 C 1081.11 1124.76 1083.12 1123.43 1085.56 1121.85 C 1096.8 1115.07 1104.29 1108.13 1111.3 1096.94 C 1114.3 1089.48 1116.44 1084.52 1118.27 1076.74 C 1118.82 1072.89 1118.96 1070.87 1119.01 1066.98 C 1115.51 1062.03 1114.81 1055.75 1113.49 1049.64 C 1113.43 1049.5 1112.38 1041.26 1112.28 1040.5 L 1114.68 1036.64 L 1118.06 1042.26 L 1119.62 1032.27 C 1117.26 1027.62 1114.77 1023.73 1112.03 1019.33 z"/>
<path transform="translate(0,0)" fill="rgb(80,60,214)" d="M 1119.62 1032.27 C 1128.22 1047.91 1127.8 1063.09 1123.35 1080.05 L 1121.03 1082.76 L 1119.89 1082.49 L 1118.27 1076.74 C 1118.82 1072.89 1118.96 1070.87 1119.01 1066.98 C 1115.51 1062.03 1114.81 1055.75 1113.49 1049.64 C 1113.43 1049.5 1112.38 1041.26 1112.28 1040.5 L 1114.68 1036.64 L 1118.06 1042.26 L 1119.62 1032.27 z"/>
<path transform="translate(0,0)" fill="rgb(139,137,249)" d="M 1114.68 1036.64 L 1118.06 1042.26 C 1119.27 1051.33 1119.12 1057.79 1119.01 1066.98 C 1115.51 1062.03 1114.81 1055.75 1113.49 1049.64 C 1113.43 1049.5 1112.38 1041.26 1112.28 1040.5 L 1114.68 1036.64 z"/>
<path transform="translate(0,0)" fill="rgb(80,60,214)" d="M 1118.27 1076.74 L 1119.89 1082.49 L 1121.03 1082.76 L 1123.35 1080.05 C 1120.71 1087.53 1118.9 1093.66 1111.3 1096.94 C 1114.3 1089.48 1116.44 1084.52 1118.27 1076.74 z"/>
<path transform="translate(0,0)" fill="url(#Gradient8)" d="M 939.059 1112.45 L 942.556 1114.02 C 945.003 1118.89 955.944 1124.85 960.93 1127.2 C 989.075 1140.49 1023.01 1143.35 1053.11 1135.67 C 1062.35 1134.1 1070.1 1130.11 1078.51 1126.11 L 1081.57 1126.9 L 1081.56 1128.35 C 1061.33 1144.19 1040.11 1149.94 1014.82 1146.54 C 1007.62 1145.57 992.02 1144.11 984.695 1144.87 C 976.82 1142.61 957.12 1133.12 950.268 1127.78 C 948.611 1126.5 947.58 1126.83 945.046 1126.5 C 940.347 1122.45 936.514 1119.08 939.059 1112.45 z"/>
<path transform="translate(0,0)" fill="rgb(86,105,239)" d="M 1089.78 1109.83 C 1113.31 1083.92 1106.52 1078.36 1113.22 1050.73 L 1113.49 1049.64 C 1114.81 1055.75 1115.51 1062.03 1119.01 1066.98 C 1118.96 1070.87 1118.82 1072.89 1118.27 1076.74 C 1116.44 1084.52 1114.3 1089.48 1111.3 1096.94 C 1104.29 1108.13 1096.8 1115.07 1085.56 1121.85 C 1083.12 1123.43 1081.11 1124.76 1078.51 1126.11 C 1070.1 1130.11 1062.35 1134.1 1053.11 1135.67 C 1056.83 1130.5 1069.51 1125.65 1075.97 1120.88 C 1081.57 1116.74 1084.37 1114.65 1089.78 1109.83 z"/>
<path transform="translate(0,0)" fill="rgb(95,87,242)" d="M 1101.34 1012.01 C 1106.47 1012.91 1107.54 1015.3 1112.03 1019.33 C 1114.77 1023.73 1117.26 1027.62 1119.62 1032.27 L 1118.06 1042.26 L 1114.68 1036.64 C 1111.82 1030.38 1108.88 1024.16 1105.86 1017.97 L 1101.34 1012.01 z"/>
<path transform="translate(0,0)" fill="rgb(184,201,247)" d="M 1105.86 1017.97 C 1108.88 1024.16 1111.82 1030.38 1114.68 1036.64 L 1112.28 1040.5 L 1101.74 1020.83 L 1105.86 1017.97 z"/>
<path transform="translate(0,0)" fill="rgb(11,3,142)" d="M 1047.48 1022.02 C 1064.68 1027.45 1075.81 1070.92 1055.07 1081.13 C 1029.7 1079.83 1033.03 1032.38 1047.48 1022.02 z"/>
<path transform="translate(0,0)" fill="rgb(11,3,142)" d="M 989.474 1021.75 C 996.133 1025.05 997.63 1030 997.831 1037.24 C 998.273 1053.14 997.589 1077.52 976.91 1078.35 C 960.814 1070.23 969.671 1049.76 975.441 1037.26 C 978.803 1029.97 982.674 1025.96 989.474 1021.75 z"/>
<path transform="translate(0,0)" fill="rgb(11,3,142)" d="M 975.494 1308.11 C 988.753 1308 1084.68 1308.01 1090.93 1310.32 C 1095.52 1312.2 1096.56 1311.85 1101.7 1311.67 C 1103.73 1320.78 1105.21 1330.61 1113.87 1336.06 C 1128.52 1345.27 1166.49 1339.72 1183.8 1337.56 C 1193.55 1335.63 1201.16 1333.84 1210.73 1331.2 C 1212.63 1327.09 1215.58 1316.55 1219.39 1315.4 C 1228.06 1315.11 1235.91 1316.36 1243.16 1316.08 C 1251.33 1317.3 1262.54 1319.2 1270.54 1319.54 C 1283.3 1320.09 1284.39 1314.24 1297.54 1319.73 L 1298.03 1320.9 C 1296.34 1321.89 1295.8 1322.17 1294.39 1323.55 C 1300.79 1328.48 1305.91 1330.65 1299.88 1340.15 C 1299.03 1341.48 1295.74 1343.49 1294.3 1344.43 L 1293.22 1344.46 C 1280.33 1354.41 1265.44 1352.81 1248.25 1358.76 L 1249.81 1359.12 C 1243.39 1361.46 1240.14 1362.09 1233.24 1362.66 C 1210.03 1364.58 1184.56 1372.69 1161.16 1372.49 C 1148.48 1372.19 1118.63 1376.92 1110.6 1372.88 C 1107.84 1374.04 1084.27 1372.71 1077.97 1373.52 C 1065.7 1375.11 1038.62 1373.64 1027.25 1370.48 C 1021.85 1373.18 1012.37 1371.82 1005.96 1371.75 C 952.453 1371.14 899.062 1366.66 846.205 1358.35 C 838.995 1357.27 817.621 1354.33 811.437 1351.9 L 809.792 1347.94 C 827.49 1344.75 843.796 1347.44 861.532 1349.06 C 855.952 1341.98 837.171 1339.91 834.632 1334.6 C 840.661 1330.33 835.889 1335.97 842.407 1331.06 L 849.076 1333.43 C 862.329 1336.2 875.944 1338.46 889.543 1338.13 C 899.266 1339.77 917.163 1338.51 926.993 1337.29 C 943.349 1336.61 944.174 1329.07 948.29 1315.02 C 948.752 1315.7 949.566 1318.28 950.122 1319.39 C 958.8 1316.88 967.695 1312.66 975.494 1308.11 z"/>
<path transform="translate(0,0)" fill="rgb(80,60,214)" d="M 1209.62 1350.11 C 1229.91 1349.13 1250.49 1346.31 1270.52 1343.17 C 1274.89 1342.49 1280.06 1343.53 1284.93 1343.1 L 1285.54 1344.47 L 1293.22 1344.46 C 1280.33 1354.41 1265.44 1352.81 1248.25 1358.76 L 1249.81 1359.12 C 1243.39 1361.46 1240.14 1362.09 1233.24 1362.66 C 1210.03 1364.58 1184.56 1372.69 1161.16 1372.49 C 1148.48 1372.19 1118.63 1376.92 1110.6 1372.88 C 1107.84 1374.04 1084.27 1372.71 1077.97 1373.52 C 1065.7 1375.11 1038.62 1373.64 1027.25 1370.48 C 1021.85 1373.18 1012.37 1371.82 1005.96 1371.75 C 952.453 1371.14 899.062 1366.66 846.205 1358.35 C 838.995 1357.27 817.621 1354.33 811.437 1351.9 L 809.792 1347.94 C 827.49 1344.75 843.796 1347.44 861.532 1349.06 C 897.317 1357.67 943.956 1353.62 980.62 1355.54 C 1058.19 1359.6 1132.39 1355.78 1209.62 1350.11 z"/>
<path transform="translate(0,0)" fill="rgb(135,66,232)" d="M 1285.54 1344.47 L 1293.22 1344.46 C 1280.33 1354.41 1265.44 1352.81 1248.25 1358.76 L 1249.81 1359.12 C 1243.39 1361.46 1240.14 1362.09 1233.24 1362.66 C 1210.03 1364.58 1184.56 1372.69 1161.16 1372.49 C 1148.48 1372.19 1118.63 1376.92 1110.6 1372.88 C 1154.15 1372.19 1244.51 1358.99 1285.54 1344.47 z"/>
<path transform="translate(0,0)" fill="url(#Gradient7)" d="M 1219.39 1315.4 C 1228.06 1315.11 1235.91 1316.36 1243.16 1316.08 C 1251.33 1317.3 1262.54 1319.2 1270.54 1319.54 C 1283.3 1320.09 1284.39 1314.24 1297.54 1319.73 L 1298.03 1320.9 C 1296.34 1321.89 1295.8 1322.17 1294.39 1323.55 C 1300.79 1328.48 1305.91 1330.65 1299.88 1340.15 C 1299.03 1341.48 1295.74 1343.49 1294.3 1344.43 L 1293.22 1344.46 L 1285.54 1344.47 L 1284.93 1343.1 C 1280.06 1343.53 1274.89 1342.49 1270.52 1343.17 C 1250.49 1346.31 1229.91 1349.13 1209.62 1350.11 C 1210.36 1349.15 1212.49 1346.54 1213.81 1346.36 C 1228.48 1344.39 1254.68 1351.84 1258.78 1331.51 C 1259.32 1328.81 1259.99 1322.35 1258.66 1320.19 C 1246.91 1318.71 1230.12 1317.96 1219.39 1315.4 z"/>
<path transform="translate(0,0)" fill="rgb(80,60,214)" d="M 1268.21 885.938 C 1272.01 879.593 1276.84 866.461 1280.94 862.414 C 1291.92 879.701 1300.39 891.664 1309.37 910.286 C 1332.66 958.603 1340.86 1024.38 1328.29 1076.67 C 1316.47 1125.88 1287.12 1181.59 1249.13 1215.21 C 1243.91 1219.83 1238.07 1225.95 1232.38 1229.83 C 1228.91 1240.67 1219.27 1299.99 1220.76 1308.26 C 1225.84 1315.56 1235.21 1311.62 1243.16 1316.08 C 1235.91 1316.36 1228.06 1315.11 1219.39 1315.4 C 1215.58 1316.55 1212.63 1327.09 1210.73 1331.2 C 1201.16 1333.84 1193.55 1335.63 1183.8 1337.56 L 1184.55 1336.7 C 1201.2 1317.03 1209.54 1250.86 1207.34 1224.65 C 1202.77 1227.05 1200.74 1227.84 1195.84 1229.53 C 1199.82 1226.26 1205.98 1224.21 1208.29 1220.75 C 1211.37 1216.14 1215.21 1210.99 1217.77 1206.13 L 1216.3 1205.57 L 1213.63 1207.16 L 1208.4 1206.22 C 1209.97 1205.57 1211.66 1204.72 1213.2 1203.98 C 1216.41 1197.95 1231.18 1186.77 1237.31 1181.29 C 1266.78 1154.92 1283.64 1129.31 1297.47 1092.21 C 1310.07 1058.39 1315.1 984.525 1299.79 952.631 C 1300.22 945.538 1290.26 924.548 1285.86 918.019 C 1283.43 914.406 1277.89 910.041 1277.43 907.011 C 1270.31 907.848 1262.87 897.426 1260.21 891.606 C 1262.74 890.836 1264.47 890.462 1267.04 889.911 L 1268.21 885.938 z"/>
<path transform="translate(0,0)" fill="rgb(95,87,242)" d="M 1213.63 1207.16 L 1216.3 1205.57 L 1217.77 1206.13 C 1215.21 1210.99 1211.37 1216.14 1208.29 1220.75 C 1205.98 1224.21 1199.82 1226.26 1195.84 1229.53 C 1200.74 1227.84 1202.77 1227.05 1207.34 1224.65 C 1209.54 1250.86 1201.2 1317.03 1184.55 1336.7 L 1183.8 1337.56 C 1166.49 1339.72 1128.52 1345.27 1113.87 1336.06 C 1105.21 1330.61 1103.73 1320.78 1101.7 1311.67 L 1101.83 1310.82 C 1097.94 1291.39 1099.41 1279.78 1100.34 1260.32 C 1120.87 1253.6 1171.08 1235.91 1187.13 1223.68 C 1191.58 1217.73 1200.53 1206.02 1208.4 1206.22 L 1213.63 1207.16 z"/>
<path transform="translate(0,0)" fill="url(#Gradient6)" d="M 1213.63 1207.16 L 1216.3 1205.57 L 1217.77 1206.13 C 1215.21 1210.99 1211.37 1216.14 1208.29 1220.75 C 1205.98 1224.21 1199.82 1226.26 1195.84 1229.53 C 1166.12 1248.89 1140.86 1270.42 1115.2 1294.69 C 1109.7 1299.9 1105.33 1308.85 1101.83 1310.82 C 1097.94 1291.39 1099.41 1279.78 1100.34 1260.32 C 1120.87 1253.6 1171.08 1235.91 1187.13 1223.68 C 1191.58 1217.73 1200.53 1206.02 1208.4 1206.22 L 1213.63 1207.16 z"/>
<path transform="translate(0,0)" fill="rgb(80,60,214)" d="M 1187.13 1223.68 C 1191.58 1217.73 1200.53 1206.02 1208.4 1206.22 L 1213.63 1207.16 C 1211.41 1213.25 1193.21 1220.81 1187.13 1223.68 z"/>
<path transform="translate(0,0)" fill="rgb(78,160,250)" d="M 837.919 1264.8 L 839.102 1263.65 C 838.272 1255.68 837.628 1212.82 833.345 1209.45 L 831.883 1211.56 L 830.82 1211 C 828.743 1206.87 828.655 1206.73 829.096 1202.26 L 830.333 1201.35 C 833.638 1202.64 842.807 1211.71 847.834 1215.21 L 849.548 1214.21 C 857.917 1218.11 863.103 1224.54 870.066 1227.57 C 880.189 1235.06 895.422 1253.29 902.123 1257.15 C 911.81 1263.78 932.512 1288.46 934.286 1300.7 C 935.968 1312.32 932.054 1326.83 926.993 1337.29 C 917.163 1338.51 899.266 1339.77 889.543 1338.13 C 875.944 1338.46 862.329 1336.2 849.076 1333.43 L 842.407 1331.06 C 840.94 1325.2 839.669 1318.8 838.386 1312.85 L 838.388 1310.06 C 841.358 1309.23 839.942 1309.86 842.318 1307.08 C 841.006 1292.97 839.099 1278.87 837.919 1264.8 z"/>
<path transform="translate(0,0)" fill="rgb(86,105,239)" d="M 902.123 1257.15 C 911.81 1263.78 932.512 1288.46 934.286 1300.7 C 935.968 1312.32 932.054 1326.83 926.993 1337.29 C 917.163 1338.51 899.266 1339.77 889.543 1338.13 C 901.351 1337.07 906.212 1336.45 918.475 1336.51 C 922.339 1327.88 925.285 1319.41 928.076 1310.41 C 935.186 1287.49 912.384 1275.05 902.123 1257.15 z"/>
<path transform="translate(0,0)" fill="rgb(71,207,253)" d="M 842.318 1307.08 C 844.127 1316.69 847.394 1325.14 849.076 1333.43 L 842.407 1331.06 C 840.94 1325.2 839.669 1318.8 838.386 1312.85 L 838.388 1310.06 C 841.358 1309.23 839.942 1309.86 842.318 1307.08 z"/>
<path transform="translate(0,0)" fill="rgb(135,66,232)" d="M 1044.04 1268.27 C 1061.09 1267.8 1084.06 1264.66 1100.34 1260.32 C 1099.41 1279.78 1097.94 1291.39 1101.83 1310.82 L 1101.7 1311.67 C 1096.56 1311.85 1095.52 1312.2 1090.93 1310.32 C 1084.68 1308.01 988.753 1308 975.494 1308.11 C 982.18 1296.82 984.678 1286.76 989.905 1274.95 C 991.359 1271.66 992.194 1271.39 994.796 1270.58 C 1011.76 1269.57 1028.22 1270.9 1044.18 1270.07 L 1044.04 1268.27 z"/>
<path transform="translate(0,0)" fill="rgb(11,3,142)" d="M 1044.04 1268.27 C 1061.09 1267.8 1084.06 1264.66 1100.34 1260.32 C 1099.41 1279.78 1097.94 1291.39 1101.83 1310.82 L 1101.7 1311.67 C 1096.56 1311.85 1095.52 1312.2 1090.93 1310.32 C 1085.37 1301.75 1078.62 1279.73 1075.78 1269.75 L 1044.18 1270.07 L 1044.04 1268.27 z"/>
<path transform="translate(0,0)" fill="rgb(80,60,214)" d="M 1129.03 1036.69 C 1133.15 1042.53 1135.24 1047.39 1138.29 1053.84 C 1138.3 1054.16 1138.31 1054.48 1138.32 1054.8 C 1138.93 1063.14 1141.1 1071.12 1142.13 1079.5 C 1144.16 1095.98 1141.11 1108.22 1134.19 1123.1 C 1124.98 1142.91 1110.63 1158.08 1089.5 1165.03 C 1079.64 1168.27 1071.36 1169.19 1061.17 1170.11 C 1045.01 1171.57 1030.85 1166.71 1015.17 1164.12 C 1011.59 1163.52 998.069 1165.52 995.274 1164.43 C 985.974 1160.83 974.55 1153.9 967.185 1147.21 C 959.416 1140.15 952.999 1133.32 945.046 1126.5 C 947.58 1126.83 948.611 1126.5 950.268 1127.78 C 957.12 1133.12 976.82 1142.61 984.695 1144.87 C 1029.46 1162.74 1085.23 1154.71 1115.33 1115.1 C 1127.49 1099.09 1132.88 1084.36 1131.12 1064 C 1130.4 1055.62 1128.6 1044.81 1129.03 1036.69 z"/>
<path transform="translate(0,0)" fill="rgb(80,60,214)" d="M 870.066 1227.57 C 880.93 1231.76 894.803 1239.52 906.714 1244.21 C 912.997 1246.69 940.823 1256.11 943.134 1257.48 L 947.305 1260.38 L 947.457 1261.46 L 947.954 1262.06 C 947.842 1261.93 950.476 1265.18 950.043 1264.51 C 957.053 1275.37 950.611 1302.85 948.29 1315.02 C 944.174 1329.07 943.349 1336.61 926.993 1337.29 C 932.054 1326.83 935.968 1312.32 934.286 1300.7 C 932.512 1288.46 911.81 1263.78 902.123 1257.15 C 895.422 1253.29 880.189 1235.06 870.066 1227.57 z"/>
<path transform="translate(0,0)" fill="rgb(11,3,142)" d="M 943.134 1257.48 C 955.099 1260.75 966.672 1262.7 978.806 1265.11 C 980.513 1265.45 991.063 1267.27 992.107 1267.63 C 1009.65 1268.2 1026.49 1268.69 1044.04 1268.27 L 1044.18 1270.07 C 1028.22 1270.9 1011.76 1269.57 994.796 1270.58 C 992.194 1271.39 991.359 1271.66 989.905 1274.95 C 984.678 1286.76 982.18 1296.82 975.494 1308.11 C 967.695 1312.66 958.8 1316.88 950.122 1319.39 C 949.566 1318.28 948.752 1315.7 948.29 1315.02 C 950.611 1302.85 957.053 1275.37 950.043 1264.51 C 950.476 1265.18 947.842 1261.93 947.954 1262.06 L 947.457 1261.46 L 947.305 1260.38 L 943.134 1257.48 z"/>
<path transform="translate(0,0)" fill="rgb(86,105,239)" d="M 1135.25 782.866 C 1142.34 785.393 1148.99 785.688 1156.87 788.965 C 1192.16 806.62 1209.12 818.585 1236.94 847.47 C 1243.25 854.026 1249.08 865.912 1255.56 870.729 C 1255.08 871.71 1255.46 871.082 1254.06 872.336 C 1249.17 869.282 1241.73 857.072 1238.26 851.934 L 1237.18 851.727 C 1233.51 858.146 1242.36 861.723 1241.38 866.782 C 1237.02 864.965 1222.85 847.003 1219.54 843.028 C 1218.48 841.758 1207.66 835.787 1205.49 834.564 C 1197.91 819.307 1165.99 806.256 1150.24 799.596 C 1143.13 793.648 1132.75 789.279 1131.16 787.721 C 1132.08 784.875 1132.85 784.715 1135.25 782.866 z"/>
<path transform="translate(0,0)" fill="rgb(95,87,242)" d="M 1077.32 990.261 C 1092.17 986.469 1137.19 1025 1142.42 1038.68 C 1141.48 1040.32 1142.09 1039.5 1140.49 1041.04 C 1141.37 1048.94 1146.84 1058.65 1145.52 1062.76 L 1144.39 1063.5 C 1143.8 1060.97 1144.48 1061.81 1142.93 1060.3 C 1141.79 1060.91 1142.52 1060.66 1140.57 1060.89 C 1139.28 1059.51 1138.84 1056.06 1138.29 1053.84 C 1135.24 1047.39 1133.15 1042.53 1129.03 1036.69 C 1126.68 1030.11 1119.48 1020.33 1112.03 1019.33 C 1107.54 1015.3 1106.47 1012.91 1101.34 1012.01 C 1093.72 1002.91 1086.91 997.058 1077.32 990.261 z"/>
<path transform="translate(0,0)" fill="rgb(86,105,239)" d="M 1273.98 850.571 C 1276.36 865.019 1268.92 874.834 1268.21 885.938 L 1267.04 889.911 C 1264.47 890.462 1262.74 890.836 1260.21 891.606 C 1262.87 897.426 1270.31 907.848 1277.43 907.011 C 1277.89 910.041 1283.43 914.406 1285.86 918.019 C 1290.26 924.548 1300.22 945.538 1299.79 952.631 C 1296.07 949.273 1288.45 925.728 1284.74 920.792 C 1276.21 909.468 1260.29 901.443 1254.9 887.709 C 1254.23 886.578 1253.57 880.48 1254.31 879.533 C 1262.05 869.567 1268.32 862.05 1273.98 850.571 z"/>
<path transform="translate(0,0)" fill="url(#Gradient5)" d="M 495.886 698.631 C 494.64 656.098 511.366 600.739 533.264 564.788 C 567.257 508.777 622.368 468.81 686.168 453.9 C 726.064 444.23 763.039 444.476 803.8 444.486 L 883.365 444.576 L 1097.59 444.406 L 1231.96 444.418 C 1294.72 444.469 1369.54 442.736 1425.08 476.427 L 1423.45 477.216 L 1422.51 476.708 C 1366.22 446.894 1313.88 446.462 1252.57 446.363 L 1154.31 446.265 L 987.393 446.007 C 959.877 445.999 924.447 444.942 897.444 446.178 C 897.47 447.9 897.263 447.477 898.203 448.711 C 901.918 453.636 894.011 463.913 899.266 467.538 C 904.376 471.062 902.026 476.994 903.063 481.962 C 906.667 499.213 913.136 516.255 916.348 533.8 C 917.327 539.145 916.859 544.823 918.074 550.142 C 922.409 561.357 925.77 572.978 928.313 584.913 C 932.681 605.415 932.484 630.646 939.971 649.713 C 941.065 652.499 942.924 655.287 943.404 658.348 C 944.452 665.029 940.553 666.727 946.009 670.641 C 946.425 678.585 945.297 687.909 946.128 694.969 C 947.675 708.107 956.276 735.148 951.533 747.3 L 954.571 750.301 C 953.667 752.109 953.596 751.432 953.721 753.047 C 961.456 753.94 1003 746.659 1007.02 739.523 C 1005.96 736.899 1002.78 735.582 1000.11 734.601 C 960.551 720.046 942.748 681.072 951.409 640.994 C 954.081 628.63 961.997 614.802 970.562 605.742 C 984.514 591.194 1003.72 582.86 1023.88 582.612 C 1045.27 582.222 1066.55 592.176 1082.04 606.71 C 1090.05 614.233 1107.91 643.402 1102.49 653.355 C 1105.83 695.797 1077.47 730.352 1036.05 738.142 C 1025.46 740.251 1016.7 738.526 1006.63 735.647 C 1011.98 748.637 1022.28 741.882 1034.29 746.134 C 1018.84 746.093 1011.63 744.928 996.492 748.984 C 971.549 752.6 960.863 754.27 936.704 760.963 C 942.159 766.402 944.068 768.63 948.606 774.854 L 948.823 777.333 C 945.693 780.627 930.038 782.735 925.081 783.105 C 919.45 784.489 913.846 785.981 908.272 787.58 L 897.757 792.366 C 857.257 805.792 817.377 842.593 791.778 876.222 C 788.277 884.746 784.744 882.69 788.326 891.528 L 787.899 893.371 L 783.583 889.46 L 781.799 889.768 L 778.831 890.181 C 778.01 886.607 777.628 882.852 775.138 880.347 C 771.78 881.673 768.946 888.897 764.4 893.313 C 766.051 888.025 770.925 877.565 775.52 874.326 C 772.874 870.296 770.547 863.874 769.428 859.19 C 766.39 851.158 763.904 837.856 761.997 829.113 C 760.844 827.898 760.047 827.334 759.681 825.374 C 752.063 786.9 754.497 742.949 771.276 707.115 C 783.064 681.941 851.532 698.412 870.665 709.701 L 872.361 710.716 L 872.103 708.994 C 868.299 703.973 860.018 702.162 856.52 696.92 C 844.392 679.568 831.231 658.259 815.277 644.134 C 799.639 630.287 796.922 622.798 786.141 606.203 C 777.974 593.633 765.797 583.676 759.268 568.209 C 755.916 560.268 749.333 550.147 745.614 542.001 C 732.51 526.389 717.692 511.058 704.117 495.748 C 698.204 489.043 696.658 481.398 689.057 474.905 C 684.041 470.62 679.355 463.357 672.483 460.831 C 665.548 460.506 650.345 466.819 644.514 469.409 C 555.606 509.097 502.619 593.409 497.721 689.738 C 496.957 704.761 499.033 743.618 496.374 756.03 C 494.211 740.868 497.488 717.313 495.997 699.797 L 495.886 698.631 z"/>
<path transform="translate(0,0)" fill="rgb(253,234,103)" d="M 1046.81 598.536 C 1050.96 597.126 1055.53 598.095 1059.42 596.421 C 1061 595.741 1061.01 595.614 1062.92 595.173 C 1072.08 600.192 1077.73 604.437 1084.29 612.873 L 1082.44 614.644 C 1083.49 622.112 1089.79 632.902 1091.45 641.199 C 1086.16 635.677 1087.35 631.175 1083.61 625.143 L 1082.67 626.062 C 1081.66 631.924 1084.68 634.015 1083.77 638.067 C 1082.22 635.42 1082.29 633.2 1079.67 629.556 C 1076.01 620.73 1069.76 614.797 1062.83 608.697 C 1056.06 603.709 1054.39 602.395 1046.81 598.536 z"/>
<path transform="translate(0,0)" fill="url(#Gradient4)" d="M 779.527 705.407 C 817.349 693.96 859.895 707.693 892.496 727.454 C 897.64 730.873 904.406 735.662 909.594 738.694 C 912.745 742.242 930.59 755.449 936.704 760.963 C 942.159 766.402 944.068 768.63 948.606 774.854 L 948.823 777.333 C 945.693 780.627 930.038 782.735 925.081 783.105 C 919.45 784.489 913.846 785.981 908.272 787.58 L 897.757 792.366 C 857.257 805.792 817.377 842.593 791.778 876.222 C 788.277 884.746 784.744 882.69 788.326 891.528 L 787.899 893.371 L 783.583 889.46 L 781.799 889.768 L 778.831 890.181 C 778.01 886.607 777.628 882.852 775.138 880.347 C 771.78 881.673 768.946 888.897 764.4 893.313 C 766.051 888.025 770.925 877.565 775.52 874.326 C 772.874 870.296 770.547 863.874 769.428 859.19 C 766.39 851.158 763.904 837.856 761.997 829.113 C 756.013 792.866 753.719 762.902 765.609 727.155 C 768.341 718.94 771.333 709.786 776.137 702.534 L 779.527 705.407 z"/>
<path transform="translate(0,0)" fill="url(#Gradient3)" d="M 779.527 705.407 C 817.349 693.96 859.895 707.693 892.496 727.454 C 897.64 730.873 904.406 735.662 909.594 738.694 C 912.745 742.242 930.59 755.449 936.704 760.963 C 942.159 766.402 944.068 768.63 948.606 774.854 L 948.823 777.333 C 945.693 780.627 930.038 782.735 925.081 783.105 C 918.767 777.24 913.635 770.925 906.746 764.62 C 874.818 735.402 835.455 716.259 792.016 713.144 C 788.358 712.882 786.653 715.425 784.692 717.849 C 780.96 720.824 777.861 722.17 773.638 724.315 C 775.467 718.427 776.484 710.517 779.527 705.407 z"/>
<path transform="translate(0,0)" fill="rgb(71,207,253)" d="M 776.137 702.534 L 779.527 705.407 C 776.484 710.517 775.467 718.427 773.638 724.315 C 777.861 722.17 780.96 720.824 784.692 717.849 C 768.825 761.059 770.535 809.072 785.428 852.339 C 786.598 859.544 789.674 869.012 791.778 876.222 C 788.277 884.746 784.744 882.69 788.326 891.528 L 787.899 893.371 L 783.583 889.46 L 781.799 889.768 L 778.831 890.181 C 778.01 886.607 777.628 882.852 775.138 880.347 C 771.78 881.673 768.946 888.897 764.4 893.313 C 766.051 888.025 770.925 877.565 775.52 874.326 C 772.874 870.296 770.547 863.874 769.428 859.19 C 766.39 851.158 763.904 837.856 761.997 829.113 C 756.013 792.866 753.719 762.902 765.609 727.155 C 768.341 718.94 771.333 709.786 776.137 702.534 z"/>
<path transform="translate(0,0)" fill="url(#Gradient2)" d="M 776.137 702.534 L 779.527 705.407 C 776.484 710.517 775.467 718.427 773.638 724.315 C 763.254 756.482 762.708 787.618 766.922 820.744 C 767.754 827.291 769.521 843.03 771.905 848.759 C 772.025 853.343 772.939 855.978 769.428 859.19 C 766.39 851.158 763.904 837.856 761.997 829.113 C 756.013 792.866 753.719 762.902 765.609 727.155 C 768.341 718.94 771.333 709.786 776.137 702.534 z"/>
<path transform="translate(0,0)" fill="rgb(78,226,251)" d="M 771.905 848.759 L 778.66 864.057 C 778.058 867.663 777.835 871.593 775.52 874.326 C 772.874 870.296 770.547 863.874 769.428 859.19 C 772.939 855.978 772.025 853.343 771.905 848.759 z"/>
<path transform="translate(0,0)" fill="rgb(41,25,182)" d="M 784.692 717.849 C 786.653 715.425 788.358 712.882 792.016 713.144 C 835.455 716.259 874.818 735.402 906.746 764.62 C 913.635 770.925 918.767 777.24 925.081 783.105 C 919.45 784.489 913.846 785.981 908.272 787.58 L 909.052 786.118 C 911.89 785.112 918.954 783.291 920.021 781.346 C 914.404 773.841 896.446 755.352 885.51 751.756 C 863.489 744.515 818.351 719.297 794.568 728.265 C 789.068 730.339 789.615 746.004 787.359 750.03 C 786.768 744.971 787.175 743.009 787.758 737.974 L 787.188 738.047 C 785.731 742.612 783.795 748.966 781.608 752.961 C 768.419 777.055 777.219 805.89 782.131 831.053 C 783.1 836.015 786.412 847.181 785.428 852.339 C 770.535 809.072 768.825 761.059 784.692 717.849 z"/>
<path transform="translate(0,0)" fill="rgb(253,196,75)" d="M 993.133 603.399 C 1013.18 593.919 1025.28 592.709 1046.81 598.536 C 1054.39 602.395 1056.06 603.709 1062.83 608.697 C 1069.76 614.797 1076.01 620.73 1079.67 629.556 C 1082.29 633.2 1082.22 635.42 1083.77 638.067 C 1084.68 634.015 1081.66 631.924 1082.67 626.062 L 1083.61 625.143 C 1087.35 631.175 1086.16 635.677 1091.45 641.199 C 1089.79 632.902 1083.49 622.112 1082.44 614.644 L 1084.29 612.873 C 1095.3 625.505 1099.3 636.987 1102.49 653.355 C 1105.83 695.797 1077.47 730.352 1036.05 738.142 C 1025.46 740.251 1016.7 738.526 1006.63 735.647 C 1003.78 734.444 1000.96 733.167 998.18 731.819 C 980.999 723.345 963.599 709.616 957.245 690.882 C 955.371 685.501 953.863 678.194 952.514 672.483 C 955.036 662.107 953.874 653.344 957.032 642.939 C 960.666 630.968 965.522 617.181 977.41 611.184 C 984.923 607.394 984.813 603.422 993.133 603.399 z"/>
<path transform="translate(0,0)" fill="rgb(248,171,44)" d="M 1084.29 612.873 C 1095.3 625.505 1099.3 636.987 1102.49 653.355 C 1105.83 695.797 1077.47 730.352 1036.05 738.142 C 1025.46 740.251 1016.7 738.526 1006.63 735.647 C 1003.78 734.444 1000.96 733.167 998.18 731.819 C 980.999 723.345 963.599 709.616 957.245 690.882 C 970.586 707.08 964.72 704.233 985.329 713.743 C 984.921 710.51 985.016 711.691 986.039 708.282 C 1003.57 719.311 1018.28 722.956 1038.88 719.265 C 1077.22 708.343 1089.61 674.738 1083.77 638.067 C 1084.68 634.015 1081.66 631.924 1082.67 626.062 L 1083.61 625.143 C 1087.35 631.175 1086.16 635.677 1091.45 641.199 C 1089.79 632.902 1083.49 622.112 1082.44 614.644 L 1084.29 612.873 z"/>
<path transform="translate(0,0)" fill="rgb(251,246,175)" d="M 1083.77 638.067 C 1084.68 634.015 1081.66 631.924 1082.67 626.062 L 1083.61 625.143 C 1087.35 631.175 1086.16 635.677 1091.45 641.199 C 1095.87 659.716 1092.65 679.23 1082.52 695.348 C 1073.11 710.28 1068.46 709.269 1059.28 717.415 L 1041.25 724.18 L 1038.88 719.265 C 1077.22 708.343 1089.61 674.738 1083.77 638.067 z"/>
<path transform="translate(0,0)" fill="rgb(251,246,175)" d="M 986.039 708.282 C 1003.57 719.311 1018.28 722.956 1038.88 719.265 L 1041.25 724.18 C 1020.44 726.145 1003.84 725.218 985.329 713.743 C 984.921 710.51 985.016 711.691 986.039 708.282 z"/>
<path transform="translate(0,0)" fill="url(#Gradient1)" d="M 993.133 603.399 C 1013.18 593.919 1025.28 592.709 1046.81 598.536 C 1054.39 602.395 1056.06 603.709 1062.83 608.697 L 1060.57 611.36 C 1058.82 612.963 1058.81 612.421 1055.86 613.125 C 1049.17 610.451 1043.25 608.187 1036.86 604.845 C 1002.28 601.534 972.496 616.986 968.144 654.631 C 967.203 662.775 972.078 677.949 966.827 682.268 C 969.351 695.341 983.235 702.487 986.039 708.282 C 985.016 711.691 984.921 710.51 985.329 713.743 C 964.72 704.233 970.586 707.08 957.245 690.882 C 955.371 685.501 953.863 678.194 952.514 672.483 C 955.036 662.107 953.874 653.344 957.032 642.939 C 960.666 630.968 965.522 617.181 977.41 611.184 C 984.923 607.394 984.813 603.422 993.133 603.399 z"/>
<path transform="translate(0,0)" fill="rgb(253,234,103)" d="M 952.514 672.483 C 955.036 662.107 953.874 653.344 957.032 642.939 C 960.666 630.968 965.522 617.181 977.41 611.184 C 984.923 607.394 984.813 603.422 993.133 603.399 C 968.798 622.866 956.567 640.478 963.775 672.772 C 964.42 675.661 966.436 679.836 966.827 682.268 C 969.351 695.341 983.235 702.487 986.039 708.282 C 985.016 711.691 984.921 710.51 985.329 713.743 C 964.72 704.233 970.586 707.08 957.245 690.882 C 955.371 685.501 953.863 678.194 952.514 672.483 z"/>
<path transform="translate(0,0)" fill="rgb(248,171,44)" d="M 1036.86 604.845 C 1048.57 603.595 1051.21 606.9 1060.57 611.36 C 1058.82 612.963 1058.81 612.421 1055.86 613.125 C 1049.17 610.451 1043.25 608.187 1036.86 604.845 z"/>
<path transform="translate(0,0)" fill="rgb(244,150,46)" d="M 1062.83 608.697 C 1069.76 614.797 1076.01 620.73 1079.67 629.556 C 1076.87 626.616 1060.04 615.765 1055.86 613.125 C 1058.81 612.421 1058.82 612.963 1060.57 611.36 L 1062.83 608.697 z"/>
<path transform="translate(0,0)" fill="rgb(253,253,225)" d="M 1023.33 623.857 C 1024.01 620.548 1024.05 618.33 1026.37 615.947 L 1028.22 616.167 C 1031.33 619.798 1031.51 622.285 1032.65 626.913 C 1036.04 627.696 1040.49 628.462 1043.47 630.055 C 1048.93 633.472 1046.99 641.721 1043.83 646.137 C 1039.86 647.641 1035.59 653.178 1032.96 656.499 C 1039.28 659.763 1040.8 660.403 1046.09 665.428 C 1052.9 670.46 1051.41 679.648 1047.02 685.652 C 1042.47 691.864 1035.5 693.716 1032.47 700.126 C 1031.15 703.31 1031.3 704.096 1029.03 705.692 C 1025.82 705.34 1025.71 705.622 1023.2 703.735 L 1023.35 702.664 C 1020.31 698.245 1020.64 697.819 1020.89 692.414 C 1020.05 694.689 1020.66 694.316 1019.18 695.484 C 1015.55 694.913 1013.26 692.821 1010.79 690.157 L 1011.09 688.628 C 1008.37 685.954 1005.79 682.06 1004.65 678.378 L 1005.3 677.226 C 1012.74 675.027 1019.28 685.151 1032.49 683.099 C 1027.28 678.214 1032.99 673.452 1026.09 667.678 C 1019.08 667.187 1011.13 662.52 1009.27 655.509 C 998.716 638.479 1006.86 629.657 1023.33 623.857 z"/>
<path transform="translate(0,0)" fill="rgb(251,246,175)" d="M 1032.65 626.913 C 1036.04 627.696 1040.49 628.462 1043.47 630.055 C 1048.93 633.472 1046.99 641.721 1043.83 646.137 C 1039.86 647.641 1035.59 653.178 1032.96 656.499 L 1028.56 653.732 C 1028.92 650.181 1029.44 647.35 1030.08 643.833 L 1029.91 639.013 C 1028.4 636.76 1028.7 636.653 1028.8 633.85 L 1028.73 633.31 C 1032.94 630.994 1032.4 631.258 1032.65 626.913 z"/>
<path transform="translate(0,0)" fill="rgb(244,150,46)" d="M 1030.08 643.833 C 1034.86 641.421 1036.29 642.302 1040.64 644.514 L 1043.83 646.137 C 1039.86 647.641 1035.59 653.178 1032.96 656.499 L 1028.56 653.732 C 1028.92 650.181 1029.44 647.35 1030.08 643.833 z"/>
<path transform="translate(0,0)" fill="rgb(204,89,11)" d="M 1043.47 630.055 C 1048.93 633.472 1046.99 641.721 1043.83 646.137 L 1040.64 644.514 C 1036.29 642.302 1034.86 641.421 1030.08 643.833 L 1029.91 639.013 C 1028.4 636.76 1028.7 636.653 1028.8 633.85 C 1033.51 636.385 1036.27 642.477 1041.57 640.371 C 1043.76 636.822 1043.34 634.42 1043.47 630.055 z"/>
<path transform="translate(0,0)" fill="rgb(248,171,44)" d="M 1028.73 633.31 L 1028.8 633.85 C 1028.7 636.653 1028.4 636.76 1029.91 639.013 L 1030.08 643.833 C 1029.44 647.35 1028.92 650.181 1028.56 653.732 L 1022.55 651.697 C 1009.13 646.957 1013.5 633.704 1028.73 633.31 z"/>
<path transform="translate(0,0)" fill="rgb(253,196,75)" d="M 1029.91 639.013 L 1030.08 643.833 C 1029.44 647.35 1028.92 650.181 1028.56 653.732 L 1022.55 651.697 C 1023.64 650.151 1022.99 645.383 1023.36 642.142 C 1026.27 639.308 1025.45 640.177 1029.91 639.013 z"/>
<path transform="translate(0,0)" fill="rgb(204,89,11)" d="M 1046.09 665.428 C 1052.9 670.46 1051.41 679.648 1047.02 685.652 C 1042.47 691.864 1035.5 693.716 1032.47 700.126 C 1031.15 703.31 1031.3 704.096 1029.03 705.692 C 1025.82 705.34 1025.71 705.622 1023.2 703.735 L 1023.35 702.664 C 1025.79 702.076 1025.61 702.081 1027.4 700.28 C 1028.53 684.107 1050.07 696.538 1046.09 665.428 z"/>
<path transform="translate(0,0)" fill="rgb(248,171,44)" d="M 1027.59 664.561 C 1036.6 669.002 1039.56 674.817 1032.49 683.099 C 1027.28 678.214 1032.99 673.452 1026.09 667.678 L 1027.59 664.561 z"/>
<path transform="translate(0,0)" fill="rgb(248,171,44)" d="M 1009.27 655.509 C 1015.65 659.765 1020.21 662.062 1027.59 664.561 L 1026.09 667.678 C 1019.08 667.187 1011.13 662.52 1009.27 655.509 z"/>
<path transform="translate(0,0)" fill="rgb(244,150,46)" d="M 1011.09 688.628 L 1020.89 692.414 C 1020.05 694.689 1020.66 694.316 1019.18 695.484 C 1015.55 694.913 1013.26 692.821 1010.79 690.157 L 1011.09 688.628 z"/>
<path transform="translate(0,0)" fill="rgb(251,246,175)" d="M 952.514 672.483 C 942.069 609.637 1004.67 564.315 1062.92 595.173 C 1061.01 595.614 1061 595.741 1059.42 596.421 C 1055.53 598.095 1050.96 597.126 1046.81 598.536 C 1025.28 592.709 1013.18 593.919 993.133 603.399 C 984.813 603.422 984.923 607.394 977.41 611.184 C 965.522 617.181 960.666 630.968 957.032 642.939 C 953.874 653.344 955.036 662.107 952.514 672.483 z"/>
<path transform="translate(0,0)" fill="rgb(230,249,248)" d="M 776.137 702.534 C 784.412 695.995 793.432 695.714 803.524 695.665 C 837.201 695.504 866.002 707.117 893.809 725.13 L 892.496 727.454 C 859.895 707.693 817.349 693.96 779.527 705.407 L 776.137 702.534 z"/>
<path transform="translate(0,0)" fill="rgb(184,201,247)" d="M 893.809 725.13 C 898.284 728.298 907.495 734.009 909.594 738.694 C 904.406 735.662 897.64 730.873 892.496 727.454 L 893.809 725.13 z"/>
<path transform="translate(0,0)" fill="rgb(80,60,214)" d="M 1157.08 760.281 C 1180.88 742.73 1202.37 728.069 1231.66 720.839 C 1239.87 718.815 1265.64 713.919 1272.84 716.99 C 1273.33 719.922 1273.7 722.263 1274.45 725.17 C 1285.09 756.514 1276.47 805.637 1267.21 836.965 C 1264 844.49 1259.13 863.254 1256.42 867.646 L 1255.56 870.729 C 1249.08 865.912 1243.25 854.026 1236.94 847.47 C 1209.12 818.585 1192.16 806.62 1156.87 788.965 C 1148.99 785.688 1142.34 785.393 1135.25 782.866 C 1142.27 774.076 1149.1 768.103 1157.08 760.281 z"/>
<path transform="translate(0,0)" fill="rgb(11,3,142)" d="M 1157.08 760.281 C 1180.88 742.73 1202.37 728.069 1231.66 720.839 C 1239.87 718.815 1265.64 713.919 1272.84 716.99 C 1267.34 726.189 1255.82 724.449 1245.84 728.475 C 1216.62 740.273 1178.3 751.581 1158.64 777.873 C 1156.28 781.268 1158.5 784.193 1156.87 788.965 C 1148.99 785.688 1142.34 785.393 1135.25 782.866 C 1142.27 774.076 1149.1 768.103 1157.08 760.281 z"/>
<path transform="translate(0,0)" fill="rgb(41,25,182)" d="M 1272.84 716.99 C 1273.33 719.922 1273.7 722.263 1274.45 725.17 L 1273.36 726.328 C 1272.43 724.527 1272.64 724.605 1270.88 723.465 C 1257.73 730.081 1257.59 733.847 1243.16 734.179 C 1244.42 734.15 1219.32 744.12 1217.53 744.736 L 1219.82 745.809 C 1216.03 751.568 1191.21 756.522 1186.91 759.886 L 1187.95 761.805 C 1183.11 766.566 1160.94 776.637 1167.65 786.495 L 1168.92 784.835 C 1171.05 787.299 1180.89 793.721 1183.4 794.041 L 1182.86 793.349 C 1191.79 800.255 1205.57 809.719 1212.71 817.595 C 1224.01 830.067 1251.86 851.617 1256.42 867.646 L 1255.56 870.729 C 1249.08 865.912 1243.25 854.026 1236.94 847.47 C 1209.12 818.585 1192.16 806.62 1156.87 788.965 C 1158.5 784.193 1156.28 781.268 1158.64 777.873 C 1178.3 751.581 1216.62 740.273 1245.84 728.475 C 1255.82 724.449 1267.34 726.189 1272.84 716.99 z"/>
<path transform="translate(0,0)" fill="rgb(71,207,253)" d="M 1279.45 701.878 L 1284.51 703.186 C 1281.69 713.678 1285.99 739.354 1286.94 752.067 C 1287.92 765.297 1287.46 776.887 1287.39 789.525 C 1287.32 801.211 1278.23 832.829 1278.61 837.751 L 1277.56 838.98 C 1273.57 842.651 1266.56 861.836 1261.69 866.328 C 1259.73 860.682 1267.78 845.089 1267.21 836.965 C 1276.47 805.637 1285.09 756.514 1274.45 725.17 C 1273.7 722.263 1273.33 719.922 1272.84 716.99 C 1265.64 713.919 1239.87 718.815 1231.66 720.839 C 1202.37 728.069 1180.88 742.73 1157.08 760.281 C 1155.81 760.732 1153.64 761.597 1152.41 761.808 C 1146.7 761.356 1145.68 760.393 1142.19 765.142 L 1140.41 764.5 C 1166.91 729.008 1203.75 707.695 1248.04 702.52 C 1257.72 701.389 1269.58 701.897 1279.45 701.878 z"/>
<path transform="translate(0,0)" fill="rgb(86,105,239)" d="M 1284.51 703.186 C 1291.64 708.406 1294.7 728.854 1296.06 736.879 C 1299.68 758.286 1299.87 779.421 1296.44 800.858 C 1296.12 802.868 1295.18 809.999 1294.32 811.697 L 1293.72 812.875 C 1292.22 815.888 1291.21 817.209 1291.19 820.566 C 1289.88 817.429 1289.78 814.078 1289.41 810.66 C 1287.18 814.828 1286.17 819.376 1284.89 823.957 L 1284.86 822.999 C 1283.64 826.733 1281.39 835.761 1278.61 837.751 C 1278.23 832.829 1287.32 801.211 1287.39 789.525 C 1287.46 776.887 1287.92 765.297 1286.94 752.067 C 1285.99 739.354 1281.69 713.678 1284.51 703.186 z"/>
<path transform="translate(0,0)" fill="rgb(181,249,245)" d="M 1128.1 759.64 C 1162.1 723.501 1229.08 688.8 1279.45 701.878 C 1269.58 701.897 1257.72 701.389 1248.04 702.52 C 1203.75 707.695 1166.91 729.008 1140.41 764.5 C 1135.45 770.554 1130.34 775 1124.51 780.174 C 1120.16 779.968 1114.82 779.05 1110.43 778.424 C 1115.24 772.092 1122.37 765.371 1128.1 759.64 z"/>
<path transform="translate(0,0)" fill="rgb(95,87,242)" d="M 1278.61 837.751 C 1281.39 835.761 1283.64 826.733 1284.86 822.999 L 1284.89 823.957 C 1286.17 819.376 1287.18 814.828 1289.41 810.66 C 1289.78 814.078 1289.88 817.429 1291.19 820.566 C 1291.21 817.209 1292.22 815.888 1293.72 812.875 L 1294.32 811.697 C 1293.01 824.769 1286.1 850.722 1280.94 862.414 C 1276.84 866.461 1272.01 879.593 1268.21 885.938 C 1268.92 874.834 1276.36 865.019 1273.98 850.571 C 1275.3 847.398 1276.57 842.408 1277.56 838.98 L 1278.61 837.751 z"/>
</svg>